<svg width="1014.000000" height="473.000000" viewBox="0 0 1014 473" fill="none" xmlns="http://www.w3.org/2000/svg" xmlns:xlink="http://www.w3.org/1999/xlink">
	<desc>
			Created with Pixso.
	</desc>
	<defs>
		<clipPath id="clip2_1">
			<rect id="фрейм 1" width="1014.000000" height="473.000000" fill="white" fill-opacity="0"/>
		</clipPath>
	</defs>
	<g clip-path="url(#clip2_1)">
		<path id="D" d="M526.98 182.11Q515.55 176.69 495.97 176.69Q494.67 176.69 492.07 176.41Q488.9 176.13 487.04 176.13Q486.72 176.13 486.41 176.15Q483.57 176.34 480.85 178.24Q478.69 179.72 478.07 181.69Q477.83 182.48 477.83 183.34Q477.83 188.09 478.32 192.69Q478.81 197.3 478.95 198.32Q479.97 206.09 480.53 213.93Q481.13 221.77 481.13 233.72Q481.13 244.37 480.11 253.9Q479.69 253.72 478.39 253.72Q477.14 253.72 476 254.08Q475.03 254.39 474.14 254.95Q473.06 255.63 472.59 256.61Q472.2 257.39 472.2 258.36Q472.2 259.56 472.61 260.6Q473.99 264.18 480.11 265.92Q488.02 268.14 497.83 268.14Q510.8 268.14 519.21 266.06Q527.64 263.95 532.6 260.65Q537.56 257.34 543.18 252Q548.53 247.11 551.83 239.13Q555.14 231.12 555.14 223.8Q555.14 213.85 552.11 206.72Q549.09 199.58 544.34 194.13Q538.44 187.49 526.98 182.11ZM503.14 255.16Q497.55 255.16 494.07 254.6Q495.65 245.67 495.65 230.84Q495.65 220.6 494.81 203.91Q494.53 199.58 494.53 197.86Q494.07 192.69 494.07 189.21Q505.04 189.21 512.81 190.76Q520.58 192.27 525.92 195.57Q531.58 199.1 534.92 204.15Q535.81 205.5 536.54 206.96Q540.02 213.85 540.02 223.63Q540.02 229.8 537.77 234.99Q536.6 237.71 534.82 240.15Q533.59 241.83 532.18 243.34Q527.63 248.19 521.14 251.23Q517.79 252.78 514.28 253.72Q508.9 255.16 503.14 255.16Z" fill="#000000" fill-opacity="1.000000" fill-rule="evenodd"/>
		<ellipse id="Эллипс 1" cx="577.000000" cy="169.500000" rx="16.000000" ry="15.500000" fill="#BA3FBA" fill-opacity="1.000000"/>
		<ellipse id="Эллипс 2" cx="539.000000" cy="218.000000" rx="89.000000" ry="78.000000" fill="#C4C4C4" fill-opacity="0.172414"/>
		<ellipse id="Эллипс 3" cx="575.500000" cy="263.500000" rx="17.500000" ry="14.500000" fill="#AA3030" fill-opacity="1.000000"/>
	</g>
</svg>
